<svg clip-rule="evenodd" fill-rule="evenodd" stroke-linejoin="round" stroke-miterlimit="2" viewBox="0 0 179 99"
    xmlns="http://www.w3.org/2000/svg">
    <g fill="#ffffff">
        <path
            d="m0-36.854c-2.875-1.382-5.922-2.767-8.891-4.301-2.033-1.05-4.132-1.413-6.349-1.085-2.044.302-4.071.722-6.103 1.097-.426.079-.881.115-1.264.296-3.072 1.446-6.245 2.726-8.849 4.995-.492.429-.852 1.007-1.341 1.44-1.195 1.055-2.433 2.06-3.646 3.095-.64.546-1.262 1.113-2.114 1.866.853.081 1.308.049 1.713.175 3.152.983 6.256 2.034 9.084 3.844 2.078 1.33 4.309 2.451 6.563 3.463.962.432 2.129.908 3.257.165 1.163-.766 2.387-1.447 3.502-2.275 2.034-1.511 4.105-2.994 5.983-4.685 2.883-2.596 5.617-5.359 8.455-8.09m76.811 45.497c-.419-.121-.899-.149-1.247-.378-2.08-1.366-4.186-2.702-6.17-4.2-1.486-1.122-2.804-2.469-4.192-3.721-.881-.795-1.79-1.563-2.621-2.408-2.445-2.485-4.86-5-7.281-7.509-1.909-1.977-3.986-3.826-5.667-5.981-1.87-2.398-3.95-4.563-5.994-6.794-2.911-3.176-6.067-6.004-9.687-8.261-2.812-1.754-5.614-3.591-8.902-4.472-2.841-.762-5.692-1.41-8.639-1.139-3.318.306-6.666.704-9.681 2.212-1.889.945-3.581 2.287-5.352 3.464-1.286.855-2.635 1.638-3.816 2.621-1.812 1.507-3.463 3.206-5.258 4.735-1.436 1.222-2.975 2.323-4.484 3.457-3.864 2.903-7.722 5.812-11.611 8.68-1.656 1.221-3.341 2.411-5.091 3.489-1.127.694-2.385 1.183-3.605 1.718-1.445.634-2.908 1.23-4.374 1.815-.285.113-.631.175-.928.127-.276-.045-.663-.216-.741-.427-.071-.192.139-.602.345-.764 2.089-1.634 4.184-3.263 6.317-4.839 1.043-.771 2.189-1.401 3.254-2.144 2.047-1.428 2.548-4.066.362-5.986-2.191-1.925-4.66-2.463-7.387-2.608-1.422-.076-2.836-.384-4.257-.409-1.381-.025-2.769.148-4.148.288-3.388.343-6.547 1.531-9.52 3.068-2.479 1.282-4.767 2.947-7.09 4.514-1.504 1.014-2.938 2.134-4.371 3.249-1.952 1.519-3.818 3.154-5.826 4.594-1.436 1.029-3.058 1.795-4.572 2.719-2.924 1.785-5.835 3.59-8.74 5.405-2.29 1.429-4.582 2.808-7.15 3.751-2.092.767-4.024 1.963-6.069 2.871-.344.153-.906-.186-1.368-.298.263-.543.378-1.322.81-1.591 3.53-2.198 7.136-4.273 10.68-6.448 1.143-.701 2.146-1.625 3.255-2.386 1.583-1.087 3.219-2.097 4.804-3.181.905-.618 1.784-1.281 2.619-1.989 2.257-1.913 4.47-3.878 6.727-5.79 1.578-1.337 3.264-2.552 4.787-3.947 1.828-1.675 3.459-3.568 5.313-5.211 1.977-1.752 4.087-3.359 6.191-4.962 2.028-1.545 4.39-2.463 6.79-3.236.847-.272 1.811-.359 2.701-.287 2.038.165 3.469-1.029 4.885-2.12 1.452-1.119 2.688-2.517 4.064-3.741 1.714-1.524 3.411-3.077 5.233-4.464 1.854-1.413 3.808-2.709 5.795-3.932 2.808-1.728 5.967-2.017 9.191-2.109 2.646-.075 5.013.859 7.404 1.709 2.833 1.007 5.594 2.217 8.424 3.231 2.369.848 4.621.979 7.055-.366 1.921-1.063 4.251-1.454 6.444-1.943 3.662-.817 7.389-.357 10.951.391 3.437.721 6.496 2.629 9.018 5.165 2.34 2.354 4.614 4.775 6.846 7.231 2.248 2.474 4.449 4.994 6.595 7.557 1.567 1.871 3.201 3.73 4.459 5.806 1.381 2.28 3.208 4.112 4.979 6.032 1.911 2.072 3.728 4.228 5.629 6.309 1.549 1.695 3.08 3.421 4.765 4.976 2.274 2.098 4.697 4.034 7.035 6.064.837.727 1.613 1.526 2.416 2.292-.101.167-.202.334-.304.501"
            fill-rule="nonzero" transform="translate(98.75 46.3162)" />
        <path
            d="m0 11.362c-.576.288-1.729.576-3.205.576-3.421 0-5.996-2.16-5.996-6.139 0-3.799 2.575-6.375 6.338-6.375 1.512 0 2.467.325 2.881.541l-.378 1.279c-.595-.289-1.441-.505-2.449-.505-2.845 0-4.735 1.818-4.735 5.006 0 2.971 1.71 4.879 4.663 4.879.954 0 1.926-.198 2.557-.504z"
            fill-rule="nonzero" transform="translate(10.8231 64.4901)" />
        <path d="m0-12.136v5.078h5.87v-5.078h1.584v12.136h-1.584v-5.69h-5.87v5.69h-1.567v-12.136z" fill-rule="nonzero"
            transform="translate(14.9432 76.2489)" />
        <path
            d="m0 12.136v-5.149l-3.835-6.987h1.782l1.711 3.35c.468.918.828 1.656 1.206 2.502h.036c.342-.792.756-1.584 1.225-2.502l1.746-3.35h1.783l-4.07 6.968v5.168z"
            fill-rule="nonzero" transform="translate(28.2811 64.1126)" />
        <path
            d="m0-12.334v7.185c0 2.718 1.206 3.871 2.827 3.871 1.8 0 2.952-1.189 2.952-3.871v-7.185h1.585v7.076c0 3.728-1.963 5.258-4.592 5.258-2.484 0-4.356-1.423-4.356-5.186v-7.148z"
            fill-rule="nonzero" transform="translate(37.4789 76.4469)" />
        <path d="m0-12.136h1.567v10.821h5.185v1.315h-6.752z" fill-rule="nonzero"
            transform="translate(48.1517 76.2489)" />
        <path
            d="m0-12.334v7.185c0 2.718 1.206 3.871 2.827 3.871 1.8 0 2.952-1.189 2.952-3.871v-7.185h1.585v7.076c0 3.728-1.963 5.258-4.592 5.258-2.484 0-4.356-1.423-4.356-5.186v-7.148z"
            fill-rule="nonzero" transform="translate(58.1605 76.4469)" />
        <path d="m0-12.136v5.078h5.87v-5.078h1.584v12.136h-1.584v-5.69h-5.87v5.69h-1.567v-12.136z" fill-rule="nonzero"
            transform="translate(74.8104 76.2489)" />
        <path d="m230.317 270.083h1.566v12.136h-1.566z" transform="matrix(-1 0 0 1 317.457 -205.97)" />
        <g fill-rule="nonzero">
            <path d="m0-12.136h1.566v10.821h5.186v1.315h-6.752z" transform="translate(90.4691 76.2489)" />
            <path d="m0-12.136h1.566v10.821h5.186v1.315h-6.752z" transform="translate(99.5599 76.2489)" />
            <path
                d="m0 8.338c.702.432 1.729.792 2.809.792 1.602 0 2.539-.847 2.539-2.07 0-1.135-.649-1.784-2.287-2.413-1.981-.703-3.205-1.729-3.205-3.44 0-1.89 1.567-3.295 3.925-3.295 1.242 0 2.143.288 2.683.595l-.432 1.278c-.396-.216-1.207-.576-2.304-.576-1.658 0-2.288.99-2.288 1.818 0 1.135.739 1.693 2.414 2.341 2.051.792 3.096 1.782 3.096 3.565 0 1.873-1.387 3.493-4.249 3.493-1.171 0-2.449-.342-3.097-.774z"
                transform="translate(108.434 66.0024)" />
            <path
                d="m0-1.278h1.08c1.368 0 2.179-.685 2.179-1.747 0-1.116-.756-1.674-2.017-1.692-.666 0-1.044.054-1.242.09zm-2.719-5.222c.882-.143 2.197-.252 3.656-.252 1.799 0 3.06.27 3.924.954.721.577 1.117 1.423 1.117 2.54 0 1.547-1.099 2.61-2.143 2.988v.054c.847.342 1.314 1.153 1.62 2.269.379 1.368.757 2.953.991 3.421h-2.809c-.198-.342-.487-1.332-.846-2.827-.324-1.512-.847-1.926-1.963-1.945h-.828v4.772h-2.719z"
                transform="translate(125.066 70.7746)" />
            <path d="m0 1.872h-4.465v2.881h4.987v2.251h-7.742v-12.136h7.491v2.251h-4.736v2.521h4.465z"
                transform="translate(140.834 69.2448)" />
            <path
                d="m0 7.959c.233.054.612.054.954.054 2.484.017 4.106-1.351 4.106-4.249.017-2.521-1.459-3.854-3.818-3.854-.612 0-1.009.054-1.242.109zm-2.755-9.903c1.008-.162 2.322-.252 3.709-.252 2.305 0 3.799.414 4.97 1.296 1.26.936 2.053 2.43 2.053 4.574 0 2.322-.847 3.925-2.017 4.915-1.278 1.062-3.224 1.566-5.6 1.566-1.422 0-2.431-.09-3.115-.179z"
                transform="translate(146.577 66.2193)" />
            <path
                d="m0 7.959c.234.054.612.054.954.054 2.484.017 4.106-1.351 4.106-4.249.017-2.521-1.459-3.854-3.818-3.854-.612 0-1.008.054-1.242.109zm-2.755-9.903c1.008-.162 2.322-.252 3.709-.252 2.305 0 3.799.414 4.97 1.296 1.26.936 2.053 2.43 2.053 4.574 0 2.322-.847 3.925-2.017 4.915-1.278 1.062-3.224 1.566-5.6 1.566-1.422 0-2.43-.09-3.115-.179z"
                transform="translate(159.699 66.2193)" />
            <path d="m0-9.579v3.926h3.763v1.692h-3.763v3.961h-1.765v-3.961h-3.763v-1.692h3.763v-3.926z"
                transform="translate(175.125 76.2485)" />
            <path
                d="m0 11.362c-.576.288-1.729.576-3.205.576-3.421 0-5.996-2.16-5.996-6.139 0-3.799 2.575-6.375 6.338-6.375 1.512 0 2.467.325 2.881.541l-.378 1.279c-.595-.289-1.441-.505-2.449-.505-2.845 0-4.735 1.818-4.735 5.006 0 2.971 1.71 4.879 4.663 4.879.954 0 1.926-.198 2.557-.504z"
                transform="translate(28.202 86.0897)" />
            <path
                d="m0 2.052-1.188-3.492c-.27-.793-.45-1.513-.63-2.215h-.036c-.181.72-.378 1.458-.613 2.196l-1.188 3.511zm-3.979 1.225-1.26 3.817h-1.621l4.123-12.136h1.891l4.141 12.136h-1.674l-1.297-3.817z"
                transform="translate(36.7689 90.7542)" />
            <path
                d="m0-.667h1.602c1.675 0 2.737-.918 2.737-2.305 0-1.566-1.134-2.25-2.791-2.268-.756 0-1.296.072-1.548.144zm-1.567-5.527c.793-.162 1.927-.252 3.007-.252 1.675 0 2.755.305 3.511.99.612.54.955 1.368.955 2.305 0 1.602-1.009 2.665-2.287 3.096v.055c.936.323 1.494 1.187 1.782 2.448.396 1.693.684 2.864.937 3.331h-1.621c-.198-.342-.468-1.386-.81-2.898-.36-1.675-1.008-2.305-2.431-2.36h-1.476v5.258h-1.567z"
                transform="translate(44.0038 92.0689)" />
            <path
                d="m0 9.74c.306.054.756.072 1.314.072 1.621 0 3.115-.594 3.115-2.358 0-1.657-1.422-2.341-3.133-2.341h-1.296zm0-5.815h1.422c1.657 0 2.629-.865 2.629-2.036 0-1.421-1.08-1.98-2.665-1.98-.72 0-1.134.055-1.386.108zm-1.567-4.97c.685-.144 1.765-.252 2.863-.252 1.567 0 2.575.269 3.331.882.63.468 1.008 1.188 1.008 2.142 0 1.171-.774 2.198-2.052 2.665v.036c1.152.289 2.502 1.243 2.502 3.043 0 1.044-.414 1.837-1.026 2.431-.846.775-2.214 1.135-4.195 1.135-1.08 0-1.908-.072-2.431-.145z"
                transform="translate(54.2821 86.9197)" />
            <path
                d="m0 .144c0 2.593 1.404 4.916 3.871 4.916 2.485 0 3.889-2.287 3.889-5.042 0-2.412-1.26-4.934-3.871-4.934-2.593 0-3.889 2.396-3.889 5.06m9.417-.198c0 4.177-2.539 6.392-5.636 6.392-3.205 0-5.455-2.485-5.455-6.158 0-3.852 2.394-6.374 5.635-6.374 3.313 0 5.456 2.539 5.456 6.14"
                transform="translate(64.0194 91.7081)" />
            <path
                d="m0 12.136v-12.136h1.711l3.889 6.14c.9 1.423 1.602 2.701 2.178 3.943l.036-.017c-.143-1.621-.179-3.098-.179-4.988v-5.078h1.476v12.136h-1.585l-3.853-6.158c-.846-1.35-1.656-2.737-2.268-4.051l-.054.018c.089 1.531.126 2.989.126 5.005v5.186z"
                transform="translate(76.0609 85.7122)" />
            <path
                d="m0-.054c.343.09.774.126 1.297.126 1.891 0 3.043-.918 3.043-2.593 0-1.602-1.135-2.377-2.863-2.377-.684 0-1.206.054-1.477.126zm-1.566-5.852c.756-.126 1.747-.234 3.006-.234 1.549 0 2.684.36 3.404 1.008.666.576 1.062 1.459 1.062 2.539 0 1.099-.324 1.963-.936 2.593-.828.883-2.179 1.333-3.709 1.333-.468 0-.901-.019-1.261-.109v4.862h-1.566z"
                transform="translate(94.475 91.7626)" />
            <path
                d="m0-.667h1.603c1.674 0 2.737-.918 2.737-2.305 0-1.566-1.135-2.25-2.791-2.268-.756 0-1.297.072-1.549.144zm-1.566-5.527c.792-.162 1.926-.252 3.006-.252 1.675 0 2.755.305 3.512.99.611.54.954 1.368.954 2.305 0 1.602-1.009 2.665-2.287 3.096v.055c.937.323 1.495 1.187 1.783 2.448.396 1.693.684 2.864.936 3.331h-1.62c-.198-.342-.468-1.386-.811-2.898-.359-1.675-1.008-2.305-2.43-2.36h-1.477v5.258h-1.566z"
                transform="translate(104.645 92.0689)" />
            <path
                d="m0 .144c0 2.593 1.405 4.916 3.872 4.916 2.484 0 3.889-2.287 3.889-5.042 0-2.412-1.261-4.934-3.871-4.934-2.593 0-3.89 2.396-3.89 5.06m9.417-.198c0 4.177-2.538 6.392-5.636 6.392-3.205 0-5.455-2.485-5.455-6.158 0-3.852 2.395-6.374 5.636-6.374 3.312 0 5.455 2.539 5.455 6.14"
                transform="translate(114.364 91.7081)" />
            <path
                d="m0-12.334h1.566v8.12c0 3.224-1.585 4.214-3.673 4.214-.577 0-1.279-.126-1.674-.288l.233-1.278c.324.126.793.233 1.315.233 1.405 0 2.233-.63 2.233-3.007z"
                transform="translate(128.892 98.0465)" />
            <path d="m0 .757h-4.718v4.375h5.258v1.314h-6.824v-12.135h6.554v1.314h-4.988v3.835h4.718z"
                transform="translate(139.945 91.4017)" />
            <path
                d="m0 11.362c-.576.288-1.729.576-3.205.576-3.421 0-5.995-2.16-5.995-6.139 0-3.799 2.574-6.375 6.338-6.375 1.511 0 2.466.325 2.881.541l-.378 1.279c-.595-.289-1.441-.505-2.45-.505-2.844 0-4.735 1.818-4.735 5.006 0 2.971 1.711 4.879 4.663 4.879.954 0 1.927-.198 2.557-.504z"
                transform="translate(151.59 86.0897)" />
            <path d="m0-9.472h-3.69v-1.332h8.984v1.332h-3.709v10.804h-1.585z" transform="translate(156.952 96.5165)" />
        </g>
    </g>
</svg>